<svg width="50" height="50" viewBox="0 0 50 50" fill="none" xmlns="http://www.w3.org/2000/svg">
<g clip-path="url(#clip0_565_104)">
<path d="M50 0H0V50H50V0Z" fill="white"/>
<path d="M22.4364 35.5158C22.3447 35.5158 22.2429 35.5056 22.141 35.4751C21.601 35.3121 21.2953 34.7518 21.4583 34.2118C21.6825 33.4578 21.7946 32.6733 21.7946 31.8786C21.7946 27.8746 18.8093 24.4002 14.8562 23.8194C14.2958 23.7379 13.9188 23.2183 14.0003 22.6579C14.0818 22.0976 14.6015 21.7206 15.1618 21.8021C20.1134 22.5357 23.8425 26.8658 23.8425 31.8786C23.8425 32.8668 23.6998 33.8551 23.4145 34.7926C23.2821 35.2306 22.8745 35.5158 22.4364 35.5158Z" fill="#222222"/>
<mask id="mask0_565_104" style="mask-type:luminance" maskUnits="userSpaceOnUse" x="13" y="21" width="11" height="15">
<path d="M22.4364 35.5158C22.3447 35.5158 22.2429 35.5056 22.141 35.4751C21.601 35.3121 21.2953 34.7518 21.4583 34.2118C21.6825 33.4578 21.7946 32.6733 21.7946 31.8786C21.7946 27.8746 18.8093 24.4002 14.8562 23.8194C14.2958 23.7379 13.9188 23.2183 14.0003 22.6579C14.0818 22.0976 14.6015 21.7206 15.1618 21.8021C20.1134 22.5357 23.8425 26.8658 23.8425 31.8786C23.8425 32.8668 23.6998 33.8551 23.4145 34.7926C23.2821 35.2306 22.8745 35.5158 22.4364 35.5158Z" fill="white"/>
</mask>
<g mask="url(#mask0_565_104)">
<path d="M22.1408 35.4745L21.4183 37.8678L21.4224 37.869L22.1408 35.4745ZM21.4582 34.2113L23.8515 34.9338L23.8545 34.9235L21.4582 34.2113ZM14.856 23.8188L15.2193 21.3454L15.2158 21.3449L14.856 23.8188ZM15.1616 21.8015L15.528 19.3285L15.5215 19.3275L15.1616 21.8015ZM23.4144 34.792L21.0227 34.064L21.0213 34.0685L23.4144 34.792ZM22.4363 33.0153C22.5227 33.0153 22.6729 33.024 22.8592 33.08L21.4224 37.869C21.8125 37.9863 22.1664 38.0153 22.4363 38.0153V33.0153ZM22.8633 33.0813C23.6253 33.3113 24.0935 34.132 23.8515 34.9338L19.0648 33.4888C18.4968 35.3703 19.5764 37.3118 21.4183 37.8678L22.8633 33.0813ZM23.8545 34.9235C24.149 33.933 24.2944 32.9083 24.2944 31.878H19.2944C19.2944 32.4373 19.2156 32.9815 19.0618 33.4988L23.8545 34.9235ZM24.2944 31.878C24.2944 26.6423 20.4082 22.1077 15.2193 21.3454L14.4926 26.2923C17.2101 26.6915 19.2944 29.1058 19.2944 31.878H24.2944ZM15.2158 21.3449C16.0599 21.4677 16.5857 22.2497 16.4741 23.0172L11.5262 22.2975C11.2515 24.1858 12.5313 26.007 14.4961 26.2928L15.2158 21.3449ZM16.4741 23.0172C16.3513 23.8613 15.5693 24.3871 14.8018 24.2755L15.5215 19.3275C13.6332 19.0529 11.812 20.3327 11.5262 22.2975L16.4741 23.0172ZM14.7953 24.2745C18.5176 24.826 21.3423 28.101 21.3423 31.878H26.3423C26.3423 25.6295 21.7089 20.2442 15.528 19.3285L14.7953 24.2745ZM21.3423 31.878C21.3423 32.6283 21.2337 33.3708 21.0227 34.064L25.8061 35.5198C26.1656 34.3385 26.3423 33.1043 26.3423 31.878H21.3423ZM21.0213 34.0685C21.219 33.4148 21.8115 33.0153 22.4363 33.0153V38.0153C23.9373 38.0153 25.3448 37.0455 25.8073 35.5155L21.0213 34.0685Z" fill="#222222"/>
</g>
<path d="M13.7457 42.0564C13.002 42.0564 12.2582 41.9749 11.5246 41.8016C8.87558 41.1904 6.62393 39.5601 5.18733 37.1964C2.25302 32.3976 3.66923 26.0706 8.3356 23.0853C9.42578 22.3822 10.628 21.9136 11.9118 21.6894C12.3193 21.6079 12.7269 21.8015 12.951 22.1479C13.1752 22.4943 13.165 22.9426 12.9205 23.2788C10.9948 25.9991 10.8827 29.6161 12.6352 32.4791C14.3774 35.3319 17.5766 36.7991 20.7962 36.2386C21.1936 36.1571 21.6113 36.3509 21.8354 36.6971C22.0596 37.0436 22.0494 37.4919 21.8049 37.8281C21.0509 38.8979 20.1034 39.8046 19.0132 40.4976C17.4136 41.5266 15.5899 42.0461 13.7457 42.0461V42.0564ZM10.0167 24.4709C9.81293 24.5728 9.61935 24.6849 9.43595 24.8071C5.69675 27.1914 4.57603 32.2754 6.92958 36.1369C8.08088 38.0216 9.87408 39.3259 11.9831 39.8149C14.031 40.2936 16.14 39.9269 17.923 38.7859C18.137 38.6534 18.3306 38.5109 18.5242 38.3579C15.437 38.0726 12.6046 36.3406 10.9031 33.5489C9.20163 30.7674 8.91635 27.4154 10.0167 24.4709Z" fill="#222222"/>
<mask id="mask1_565_104" style="mask-type:luminance" maskUnits="userSpaceOnUse" x="3" y="21" width="19" height="22">
<path d="M13.7457 42.0564C13.002 42.0564 12.2582 41.9749 11.5246 41.8016C8.87558 41.1904 6.62393 39.5601 5.18733 37.1964C2.25302 32.3976 3.66923 26.0706 8.3356 23.0853C9.42578 22.3822 10.628 21.9136 11.9118 21.6894C12.3193 21.6079 12.7269 21.8015 12.951 22.1479C13.1752 22.4943 13.165 22.9426 12.9205 23.2788C10.9948 25.9991 10.8827 29.6161 12.6352 32.4791C14.3774 35.3319 17.5766 36.7991 20.7962 36.2386C21.1936 36.1571 21.6113 36.3509 21.8354 36.6971C22.0596 37.0436 22.0494 37.4919 21.8049 37.8281C21.0509 38.8979 20.1034 39.8046 19.0132 40.4976C17.4136 41.5266 15.5899 42.0461 13.7457 42.0461V42.0564ZM10.0167 24.4709C9.81293 24.5728 9.61935 24.6849 9.43595 24.8071C5.69675 27.1914 4.57603 32.2754 6.92958 36.1369C8.08088 38.0216 9.87408 39.3259 11.9831 39.8149C14.031 40.2936 16.14 39.9269 17.923 38.7859C18.137 38.6534 18.3306 38.5109 18.5242 38.3579C15.437 38.0726 12.6046 36.3406 10.9031 33.5489C9.20163 30.7674 8.91635 27.4154 10.0167 24.4709Z" fill="white"/>
</mask>
<g mask="url(#mask1_565_104)">
<path d="M13.7457 42.0566V44.5566H16.2457V42.0566H13.7457ZM11.5246 41.8018L12.0991 39.3688L12.0868 39.3658L11.5246 41.8018ZM5.18733 37.1966L7.32373 35.8983L7.3202 35.8926L5.18733 37.1966ZM8.3356 23.0855L9.68285 25.1913L9.69045 25.1866L8.3356 23.0855ZM11.9118 21.6896L12.3418 24.1524L12.372 24.1471L12.4021 24.1411L11.9118 21.6896ZM12.9205 23.279L10.8985 21.8085L10.8799 21.8346L12.9205 23.279ZM12.6352 32.4793L14.7688 31.1763L14.7674 31.1741L12.6352 32.4793ZM20.7962 36.2388L21.2249 38.7018L21.2618 38.6953L21.2986 38.6878L20.7962 36.2388ZM21.8049 37.8283L19.783 36.3578L19.7721 36.3728L19.7614 36.3881L21.8049 37.8283ZM19.0132 40.4978L17.6723 38.3878L17.6606 38.3953L19.0132 40.4978ZM13.7457 42.0463V39.5463H11.2457V42.0463H13.7457ZM10.0167 24.4711L12.3585 25.3463L14.5834 19.3927L8.89868 22.235L10.0167 24.4711ZM9.43595 24.8073L10.78 26.9153L10.8015 26.9016L10.8227 26.8876L9.43595 24.8073ZM11.9831 39.8151L12.5523 37.3808L12.5478 37.3798L11.9831 39.8151ZM17.923 38.7861L16.6072 36.6603L16.5912 36.6703L16.5754 36.6803L17.923 38.7861ZM18.5242 38.3581L20.0733 40.3203L24.9829 36.4443L18.7542 35.8688L18.5242 38.3581ZM10.9031 33.5491L13.0379 32.2481L13.0357 32.2446L10.9031 33.5491ZM13.7457 39.5566C13.1852 39.5566 12.6347 39.4953 12.0991 39.3688L10.9501 44.2351C11.8817 44.4548 12.8188 44.5566 13.7457 44.5566V39.5566ZM12.0868 39.3658C10.1021 38.9078 8.41448 37.6928 7.32373 35.8983L3.05095 38.4951C4.83335 41.4278 7.64908 43.4733 10.9625 44.2378L12.0868 39.3658ZM7.3202 35.8926C5.07945 32.2278 6.18918 27.4263 9.68285 25.1913L6.98835 20.9795C1.14932 24.715 -0.573409 32.5678 3.05445 38.5008L7.3202 35.8926ZM9.69045 25.1866C10.4974 24.6661 11.3848 24.3195 12.3418 24.1524L11.4818 19.2269C9.87128 19.5081 8.35413 20.0988 6.98073 20.9844L9.69045 25.1866ZM12.4021 24.1411C11.7112 24.2792 11.1319 23.9386 10.8521 23.5062L15.0499 20.79C14.3219 19.6648 12.9274 18.937 11.4215 19.2382L12.4021 24.1411ZM10.8521 23.5062C10.5177 22.9895 10.5314 22.3132 10.8985 21.8085L14.9423 24.7495C15.7984 23.5723 15.8326 21.9996 15.0499 20.79L10.8521 23.5062ZM10.8799 21.8346C8.37138 25.3786 8.23363 30.0771 10.5029 33.7846L14.7674 31.1741C13.5319 29.1556 13.6182 26.6203 14.961 24.7234L10.8799 21.8346ZM10.5016 33.7823C12.7659 37.4901 16.9699 39.4426 21.2249 38.7018L20.3675 33.7758C18.1833 34.1561 15.9889 33.1743 14.7688 31.1763L10.5016 33.7823ZM21.2986 38.6878C20.5947 38.8323 20.019 38.4921 19.7365 38.0556L23.9344 35.3393C23.2036 34.2098 21.7924 33.4826 20.2939 33.7898L21.2986 38.6878ZM19.7365 38.0556C19.4022 37.5388 19.416 36.8626 19.783 36.3578L23.8267 39.2988C24.6828 38.1216 24.717 36.5488 23.9344 35.3393L19.7365 38.0556ZM19.7614 36.3881C19.1924 37.1953 18.4821 37.8731 17.6723 38.3878L20.3541 42.6076C21.7246 41.7368 22.9094 40.6008 23.8484 39.2686L19.7614 36.3881ZM17.6606 38.3953C16.4704 39.1608 15.1173 39.5463 13.7457 39.5463V44.5463C16.0624 44.5463 18.3569 43.8926 20.3658 42.6003L17.6606 38.3953ZM11.2457 42.0463V42.0566H16.2457V42.0463H11.2457ZM8.89868 22.235C8.60528 22.3817 8.3217 22.5455 8.0492 22.7272L10.8227 26.8876C10.917 26.8246 11.0206 26.7643 11.1348 26.7071L8.89868 22.235ZM8.0919 22.6994C3.16435 25.8411 1.7584 32.4563 4.79483 37.4381L9.0643 34.8358C7.39363 32.0948 8.22918 28.5418 10.78 26.9153L8.0919 22.6994ZM4.79483 37.4381C6.28853 39.8836 8.642 41.6066 11.4184 42.2506L12.5478 37.3798C11.1062 37.0453 9.87323 36.1601 9.0643 34.8358L4.79483 37.4381ZM11.4139 42.2493C14.1256 42.8836 16.9251 42.3928 19.2707 40.8918L16.5754 36.6803C15.355 37.4613 13.9364 37.7043 12.5523 37.3808L11.4139 42.2493ZM19.2389 40.9118C19.5627 40.7113 19.8379 40.5061 20.0733 40.3203L16.9751 36.3958C16.8233 36.5158 16.7113 36.5958 16.6072 36.6603L19.2389 40.9118ZM18.7542 35.8688C16.4591 35.6566 14.3306 34.3691 13.0379 32.2481L8.76838 34.8503C10.8786 38.3126 14.415 40.4891 18.2941 40.8476L18.7542 35.8688ZM13.0357 32.2446C11.7387 30.1241 11.5251 27.5766 12.3585 25.3463L7.67488 23.596C6.30763 27.2546 6.66458 31.4111 8.77048 34.8536L13.0357 32.2446Z" fill="#222222"/>
</g>
<path d="M14.5534 21.6607L14.4002 22.6489L16.3766 22.9554L16.5298 21.9672L14.5534 21.6607ZM22.0134 17.5062C22.5655 17.4921 23.0016 17.0331 22.9875 16.481C22.9734 15.9289 22.5144 15.4928 21.9623 15.5069L22.0134 17.5062ZM16.5298 21.9672C16.7612 20.4752 16.3656 17.1177 13.3478 14.4492L12.0229 15.9475C14.4676 18.1092 14.6939 20.7548 14.5534 21.6607L16.5298 21.9672ZM13.3478 14.4492C12.1577 13.397 11.9133 12.5004 11.9338 11.8882C11.9559 11.2283 12.2921 10.6953 12.5731 10.4292L11.1976 8.97721C10.6072 9.53651 9.97779 10.5437 9.93494 11.8212C9.89049 13.1464 10.4817 14.5847 12.0229 15.9475L13.3478 14.4492ZM12.5731 10.4292C12.8462 10.1704 13.5602 9.88159 14.3438 9.97501C15.0403 10.0581 15.7524 10.4383 16.1633 11.4764L18.023 10.7404C17.3213 8.96761 15.9498 8.15234 14.5806 7.98909C13.2985 7.83621 11.9649 8.25021 11.1976 8.97721L12.5731 10.4292ZM16.1633 11.4764C16.3208 11.8742 16.4362 12.354 16.6269 13.0155C16.8042 13.6303 17.034 14.3455 17.4 15.0134C17.7716 15.6914 18.2983 16.3487 19.0816 16.8209C19.8675 17.2947 20.8356 17.5363 22.0134 17.5062L21.9623 15.5069C21.0932 15.5291 20.5166 15.3507 20.1142 15.1081C19.7091 14.8639 19.4038 14.5081 19.1539 14.0522C18.8985 13.5862 18.7174 13.0466 18.5487 12.4614C18.3934 11.9229 18.2276 11.2574 18.023 10.7404L16.1633 11.4764Z" fill="#222222"/>
<path d="M44.9365 35.5158C44.8447 35.5158 44.7427 35.5056 44.641 35.4751C44.101 35.3121 43.7952 34.7518 43.9582 34.2118C44.1825 33.4578 44.2945 32.6733 44.2945 31.8786C44.2945 27.8746 41.3092 24.4002 37.3562 23.8194C36.7957 23.7379 36.4187 23.2183 36.5002 22.6579C36.5817 22.0976 37.1015 21.7206 37.6617 21.8021C42.6135 22.5357 46.3425 26.8658 46.3425 31.8786C46.3425 32.8668 46.1997 33.8551 45.9145 34.7926C45.782 35.2306 45.3745 35.5158 44.9365 35.5158Z" fill="#222222"/>
<mask id="mask2_565_104" style="mask-type:luminance" maskUnits="userSpaceOnUse" x="36" y="21" width="11" height="15">
<path d="M44.9365 35.5158C44.8447 35.5158 44.7427 35.5056 44.641 35.4751C44.101 35.3121 43.7952 34.7518 43.9582 34.2118C44.1825 33.4578 44.2945 32.6733 44.2945 31.8786C44.2945 27.8746 41.3092 24.4002 37.3562 23.8194C36.7957 23.7379 36.4187 23.2183 36.5002 22.6579C36.5817 22.0976 37.1015 21.7206 37.6617 21.8021C42.6135 22.5357 46.3425 26.8658 46.3425 31.8786C46.3425 32.8668 46.1997 33.8551 45.9145 34.7926C45.782 35.2306 45.3745 35.5158 44.9365 35.5158Z" fill="white"/>
</mask>
<g mask="url(#mask2_565_104)">
<path d="M44.641 35.4745L43.9185 37.8678L43.9225 37.869L44.641 35.4745ZM43.9582 34.2113L46.3517 34.9338L46.3547 34.9235L43.9582 34.2113ZM37.3562 23.8188L37.7195 21.3454L37.716 21.3449L37.3562 23.8188ZM37.6617 21.8015L38.0282 19.3285L38.0217 19.3275L37.6617 21.8015ZM45.9145 34.792L43.5227 34.064L43.5215 34.0685L45.9145 34.792ZM44.9365 33.0153C45.023 33.0153 45.173 33.024 45.3592 33.08L43.9225 37.869C44.3127 37.9863 44.6667 38.0153 44.9365 38.0153V33.0153ZM45.3635 33.0813C46.1255 33.3113 46.5937 34.132 46.3517 34.9338L41.565 33.4888C40.997 35.3703 42.0765 37.3118 43.9185 37.8678L45.3635 33.0813ZM46.3547 34.9235C46.6492 33.933 46.7945 32.9083 46.7945 31.878H41.7945C41.7945 32.4373 41.7157 32.9815 41.562 33.4988L46.3547 34.9235ZM46.7945 31.878C46.7945 26.6423 42.9085 22.1077 37.7195 21.3454L36.9927 26.2923C39.7102 26.6915 41.7945 29.1058 41.7945 31.878H46.7945ZM37.716 21.3449C38.56 21.4677 39.086 22.2497 38.9742 23.0172L34.0262 22.2975C33.7517 24.1858 35.0315 26.007 36.9962 26.2928L37.716 21.3449ZM38.9742 23.0172C38.8515 23.8613 38.0695 24.3871 37.302 24.2755L38.0217 19.3275C36.1335 19.0529 34.3122 20.3327 34.0262 22.2975L38.9742 23.0172ZM37.2955 24.2745C41.0177 24.826 43.8425 28.101 43.8425 31.878H48.8425C48.8425 25.6295 44.209 20.2442 38.0282 19.3285L37.2955 24.2745ZM43.8425 31.878C43.8425 32.6283 43.7337 33.3708 43.5227 34.064L48.3062 35.5198C48.6657 34.3385 48.8425 33.1043 48.8425 31.878H43.8425ZM43.5215 34.0685C43.7192 33.4148 44.3117 33.0153 44.9365 33.0153V38.0153C46.4375 38.0153 47.845 37.0455 48.3075 35.5155L43.5215 34.0685Z" fill="#222222"/>
</g>
<path d="M36.2458 42.0564C35.502 42.0564 34.7583 41.9749 34.0245 41.8016C31.3755 41.1904 29.124 39.5601 27.6873 37.1964C24.753 32.3976 26.1693 26.0706 30.8355 23.0853C31.9258 22.3822 33.128 21.9136 34.4118 21.6894C34.8193 21.6079 35.2268 21.8015 35.451 22.1479C35.6753 22.4943 35.665 22.9426 35.4205 23.2788C33.4948 25.9991 33.3828 29.6161 35.1353 32.4791C36.8775 35.3319 40.0765 36.7991 43.2963 36.2386C43.6935 36.1571 44.1113 36.3509 44.3355 36.6971C44.5595 37.0436 44.5495 37.4919 44.3048 37.8281C43.551 38.8979 42.6035 39.8046 41.5133 40.4976C39.9135 41.5266 38.0898 42.0461 36.2458 42.0461V42.0564ZM32.5168 24.4709C32.313 24.5728 32.1193 24.6849 31.936 24.8071C28.1968 27.1914 27.076 32.2754 29.4295 36.1369C30.581 38.0216 32.374 39.3259 34.483 39.8149C36.531 40.2936 38.64 39.9269 40.423 38.7859C40.637 38.6534 40.8305 38.5109 41.0243 38.3579C37.937 38.0726 35.1045 36.3406 33.403 33.5489C31.7015 30.7674 31.4163 27.4154 32.5168 24.4709Z" fill="#222222"/>
<mask id="mask3_565_104" style="mask-type:luminance" maskUnits="userSpaceOnUse" x="26" y="21" width="19" height="22">
<path d="M36.2458 42.0564C35.502 42.0564 34.7583 41.9749 34.0245 41.8016C31.3755 41.1904 29.124 39.5601 27.6873 37.1964C24.753 32.3976 26.1693 26.0706 30.8355 23.0853C31.9258 22.3822 33.128 21.9136 34.4118 21.6894C34.8193 21.6079 35.2268 21.8015 35.451 22.1479C35.6753 22.4943 35.665 22.9426 35.4205 23.2788C33.4948 25.9991 33.3828 29.6161 35.1353 32.4791C36.8775 35.3319 40.0765 36.7991 43.2963 36.2386C43.6935 36.1571 44.1113 36.3509 44.3355 36.6971C44.5595 37.0436 44.5495 37.4919 44.3048 37.8281C43.551 38.8979 42.6035 39.8046 41.5133 40.4976C39.9135 41.5266 38.0898 42.0461 36.2458 42.0461V42.0564ZM32.5168 24.4709C32.313 24.5728 32.1193 24.6849 31.936 24.8071C28.1968 27.1914 27.076 32.2754 29.4295 36.1369C30.581 38.0216 32.374 39.3259 34.483 39.8149C36.531 40.2936 38.64 39.9269 40.423 38.7859C40.637 38.6534 40.8305 38.5109 41.0243 38.3579C37.937 38.0726 35.1045 36.3406 33.403 33.5489C31.7015 30.7674 31.4163 27.4154 32.5168 24.4709Z" fill="white"/>
</mask>
<g mask="url(#mask3_565_104)">
<path d="M36.2457 42.0566V44.5566H38.7457V42.0566H36.2457ZM34.0245 41.8018L34.599 39.3688L34.5867 39.3658L34.0245 41.8018ZM27.6872 37.1966L29.8237 35.8983L29.8202 35.8926L27.6872 37.1966ZM30.8355 23.0855L32.1827 25.1913L32.1905 25.1866L30.8355 23.0855ZM34.4117 21.6896L34.8417 24.1524L34.872 24.1471L34.902 24.1411L34.4117 21.6896ZM35.4205 23.279L33.3985 21.8085L33.38 21.8346L35.4205 23.279ZM35.1352 32.4793L37.2687 31.1763L37.2675 31.1741L35.1352 32.4793ZM43.2962 36.2388L43.725 38.7018L43.7617 38.6953L43.7985 38.6878L43.2962 36.2388ZM44.3047 37.8283L42.283 36.3578L42.272 36.3728L42.2612 36.3881L44.3047 37.8283ZM41.5132 40.4978L40.1722 38.3878L40.1607 38.3953L41.5132 40.4978ZM36.2457 42.0463V39.5463H33.7457V42.0463H36.2457ZM32.5167 24.4711L34.8585 25.3463L37.0835 19.3927L31.3987 22.235L32.5167 24.4711ZM31.936 24.8073L33.28 26.9153L33.3015 26.9016L33.3227 26.8876L31.936 24.8073ZM34.483 39.8151L35.0522 37.3808L35.0477 37.3798L34.483 39.8151ZM40.423 38.7861L39.1072 36.6603L39.0912 36.6703L39.0755 36.6803L40.423 38.7861ZM41.0242 38.3581L42.5732 40.3203L47.483 36.4443L41.2542 35.8688L41.0242 38.3581ZM33.403 33.5491L35.5377 32.2481L35.5357 32.2446L33.403 33.5491ZM36.2457 39.5566C35.6852 39.5566 35.1347 39.4953 34.599 39.3688L33.4502 44.2351C34.3817 44.4548 35.3187 44.5566 36.2457 44.5566V39.5566ZM34.5867 39.3658C32.602 38.9078 30.9145 37.6928 29.8237 35.8983L25.551 38.4951C27.3332 41.4278 30.149 43.4733 33.4625 44.2378L34.5867 39.3658ZM29.8202 35.8926C27.5795 32.2278 28.6892 27.4263 32.1827 25.1913L29.4882 20.9795C23.6493 24.715 21.9266 32.5678 25.5545 38.5008L29.8202 35.8926ZM32.1905 25.1866C32.9975 24.6661 33.8847 24.3195 34.8417 24.1524L33.9817 19.2269C32.3712 19.5081 30.8542 20.0988 29.4807 20.9844L32.1905 25.1866ZM34.902 24.1411C34.2112 24.2792 33.6317 23.9386 33.352 23.5062L37.55 20.79C36.822 19.6648 35.4275 18.937 33.9215 19.2382L34.902 24.1411ZM33.352 23.5062C33.0177 22.9895 33.0315 22.3132 33.3985 21.8085L37.4422 24.7495C38.2985 23.5723 38.3325 21.9996 37.55 20.79L33.352 23.5062ZM33.38 21.8346C30.8715 25.3786 30.7335 30.0771 33.003 33.7846L37.2675 31.1741C36.0317 29.1556 36.1182 26.6203 37.461 24.7234L33.38 21.8346ZM33.0015 33.7823C35.266 37.4901 39.47 39.4426 43.725 38.7018L42.8675 33.7758C40.6832 34.1561 38.489 33.1743 37.2687 31.1763L33.0015 33.7823ZM43.7985 38.6878C43.0947 38.8323 42.519 38.4921 42.2365 38.0556L46.4342 35.3393C45.7035 34.2098 44.2925 33.4826 42.7937 33.7898L43.7985 38.6878ZM42.2365 38.0556C41.9022 37.5388 41.916 36.8626 42.283 36.3578L46.3267 39.2988C47.1827 38.1216 47.217 36.5488 46.4342 35.3393L42.2365 38.0556ZM42.2612 36.3881C41.6925 37.1953 40.9822 37.8731 40.1722 38.3878L42.854 42.6076C44.2245 41.7368 45.4095 40.6008 46.3482 39.2686L42.2612 36.3881ZM40.1607 38.3953C38.9702 39.1608 37.6172 39.5463 36.2457 39.5463V44.5463C38.5625 44.5463 40.8567 43.8926 42.8657 42.6003L40.1607 38.3953ZM33.7457 42.0463V42.0566H38.7457V42.0463H33.7457ZM31.3987 22.235C31.1052 22.3817 30.8217 22.5455 30.5492 22.7272L33.3227 26.8876C33.417 26.8246 33.5205 26.7643 33.6347 26.7071L31.3987 22.235ZM30.592 22.6994C25.6642 25.8411 24.2584 32.4563 27.2947 37.4381L31.5642 34.8358C29.8937 32.0948 30.7292 28.5418 33.28 26.9153L30.592 22.6994ZM27.2947 37.4381C28.7885 39.8836 31.142 41.6066 33.9182 42.2506L35.0477 37.3798C33.6062 37.0453 32.3732 36.1601 31.5642 34.8358L27.2947 37.4381ZM33.9137 42.2493C36.6255 42.8836 39.425 42.3928 41.7707 40.8918L39.0755 36.6803C37.855 37.4613 36.4365 37.7043 35.0522 37.3808L33.9137 42.2493ZM41.739 40.9118C42.0627 40.7113 42.338 40.5061 42.5732 40.3203L39.475 36.3958C39.3232 36.5158 39.2112 36.5958 39.1072 36.6603L41.739 40.9118ZM41.2542 35.8688C38.959 35.6566 36.8305 34.3691 35.5377 32.2481L31.2682 34.8503C33.3785 38.3126 36.915 40.4891 40.794 40.8476L41.2542 35.8688ZM35.5357 32.2446C34.2387 30.1241 34.025 27.5766 34.8585 25.3463L30.175 23.596C28.8075 27.2546 29.1645 31.4111 31.2705 34.8536L35.5357 32.2446Z" fill="#222222"/>
</g>
<path d="M37.0534 21.6607L36.9002 22.6489L38.8764 22.9554L39.0297 21.9672L37.0534 21.6607ZM44.5134 17.5062C45.0654 17.4921 45.5017 17.0331 45.4874 16.481C45.4734 15.9289 45.0144 15.4928 44.4622 15.5069L44.5134 17.5062ZM39.0297 21.9672C39.2612 20.4752 38.8654 17.1177 35.8477 14.4492L34.5229 15.9475C36.9674 18.1092 37.1939 20.7548 37.0534 21.6607L39.0297 21.9672ZM35.8477 14.4492C34.6577 13.397 34.4132 12.5004 34.4337 11.8882C34.4559 11.2283 34.7922 10.6953 35.0732 10.4292L33.6977 8.97721C33.1072 9.53651 32.4777 10.5437 32.4349 11.8212C32.3904 13.1464 32.9817 14.5847 34.5229 15.9475L35.8477 14.4492ZM35.0732 10.4292C35.3462 10.1704 36.0602 9.88159 36.8437 9.97501C37.5402 10.0581 38.2524 10.4383 38.6634 11.4764L40.5229 10.7404C39.8212 8.96761 38.4497 8.15234 37.0807 7.98909C35.7984 7.83621 34.4652 8.25021 33.6977 8.97721L35.0732 10.4292ZM38.6634 11.4764C38.8207 11.8742 38.9362 12.354 39.1269 13.0155C39.3042 13.6303 39.5339 14.3455 39.8999 15.0134C40.2714 15.6914 40.7982 16.3487 41.5814 16.8209C42.3674 17.2947 43.3357 17.5363 44.5134 17.5062L44.4622 15.5069C43.5932 15.5291 43.0167 15.3507 42.6142 15.1081C42.2089 14.8639 41.9037 14.5081 41.6539 14.0522C41.3984 13.5862 41.2174 13.0466 41.0487 12.4614C40.8934 11.9229 40.7277 11.2574 40.5229 10.7404L38.6634 11.4764Z" fill="#222222"/>
</g>
<defs>
<clipPath id="clip0_565_104">
<rect width="50" height="50" fill="white"/>
</clipPath>
</defs>
</svg>
