<svg width="52" height="50" viewBox="0 0 52 50" fill="none" xmlns="http://www.w3.org/2000/svg">
<g clip-path="url(#clip0_565_62)">
<path d="M9.16154 53.25H42.8377M21.2949 5L16.3425 19.5L25.9996 44.75L35.6568 19.5L30.7044 5M3.21869 19.5H48.7806M27.4854 44.5L48.7806 20.75C49.2758 20.25 49.2758 20 49.5235 19.75C49.5235 19.5833 49.5235 19.4167 49.5235 19.25C49.5235 19 49.2758 18.75 48.7806 18.25L38.6282 5.75C38.3806 5.5 38.133 5.25 38.133 5.25C37.9679 5.08333 37.8028 5 37.6377 5C37.6377 5 37.3901 5 37.1425 5H14.8568C14.6092 5 14.3615 5 14.3615 5C14.1965 5 14.0314 5.08333 13.8663 5.25C13.8663 5.25 13.6187 5.5 13.3711 5.75L3.21869 18.25C2.72345 18.75 2.47583 19 2.47583 19.25C2.47583 19.4167 2.47583 19.5833 2.47583 19.75C2.72345 20 2.72345 20.25 3.21869 20.75L24.5139 44.5C25.0092 45 25.2568 45.25 25.5044 45.5C25.8346 45.5 26.1647 45.5 26.4949 45.5C26.7425 45.25 26.9901 45 27.4854 44.5Z" stroke="#222222" stroke-width="1.175" stroke-linecap="round" stroke-linejoin="round"/>
</g>
<defs>
<clipPath id="clip0_565_62">
<rect width="52" height="50" fill="white"/>
</clipPath>
</defs>
</svg>
