<svg width="40" height="50" viewBox="0 0 40 50" fill="none" xmlns="http://www.w3.org/2000/svg">
<g clip-path="url(#clip0_565_65)">
<path d="M4.85054 49.4388C5.45107 49.4388 5.93789 48.9528 5.93789 48.3532C5.93789 47.7536 5.45107 47.2676 4.85054 47.2676C4.25001 47.2676 3.76318 47.7536 3.76318 48.3532C3.76318 48.9528 4.25001 49.4388 4.85054 49.4388Z" fill="#222222"/>
<path d="M0.769701 39.058C1.19479 39.058 1.5394 38.7139 1.5394 38.2895C1.5394 37.8651 1.19479 37.521 0.769701 37.521C0.344607 37.521 0 37.8651 0 38.2895C0 38.7139 0.344607 39.058 0.769701 39.058Z" fill="#222222"/>
<path d="M19.6701 48.3534C20.0952 48.3534 20.4398 48.0093 20.4398 47.5849C20.4398 47.1605 20.0952 46.8164 19.6701 46.8164C19.245 46.8164 18.9004 47.1605 18.9004 47.5849C18.9004 48.0093 19.245 48.3534 19.6701 48.3534Z" fill="#222222"/>
<path d="M28.0024 12.9788C28.4545 12.9788 28.821 12.6129 28.821 12.1615C28.821 11.7101 28.4545 11.3442 28.0024 11.3442C27.5503 11.3442 27.1838 11.7101 27.1838 12.1615C27.1838 12.6129 27.5503 12.9788 28.0024 12.9788Z" fill="#222222"/>
<path d="M26.5609 2.32973C26.878 2.32973 27.1351 2.07305 27.1351 1.75642C27.1351 1.43979 26.878 1.18311 26.5609 1.18311C26.2438 1.18311 25.9867 1.43979 25.9867 1.75642C25.9867 2.07305 26.2438 2.32973 26.5609 2.32973Z" fill="#222222"/>
<path d="M37.1533 12.2462C37.4705 12.2462 37.7275 11.9895 37.7275 11.6729C37.7275 11.3563 37.4705 11.0996 37.1533 11.0996C36.8362 11.0996 36.5791 11.3563 36.5791 11.6729C36.5791 11.9895 36.8362 12.2462 37.1533 12.2462Z" fill="#222222"/>
<path d="M39.3893 42.8759C39.3893 46.4744 36.3838 49.3897 32.6941 49.3897C29.0044 49.3897 25.9989 46.4744 25.9989 42.8759C25.9989 39.2775 29.0044 28.165 32.6941 28.165C36.3838 28.165 39.3893 39.2775 39.3893 42.8759Z" stroke="#222222" stroke-width="1.21981" stroke-linecap="round" stroke-linejoin="round"/>
<path d="M36.5793 36.6915C36.5793 38.7774 34.8444 40.4729 32.6941 40.4729C30.5438 40.4729 28.809 38.7774 28.809 36.6915C28.809 34.6056 30.5438 28.165 32.6941 28.165C34.8444 28.165 36.5793 34.6056 36.5793 36.6915Z" stroke="#222222" stroke-width="1.21981" stroke-linecap="round" stroke-linejoin="round"/>
<path d="M32.6942 27.8483C34.4688 27.8483 35.9073 26.8544 35.9073 25.6283C35.9073 24.4022 34.4688 23.4082 32.6942 23.4082C30.9196 23.4082 29.481 24.4022 29.481 25.6283C29.481 26.8544 30.9196 27.8483 32.6942 27.8483Z" stroke="#222222" stroke-width="1.21981" stroke-linecap="round" stroke-linejoin="round"/>
<path d="M32.6938 23.1032C33.9218 23.1032 34.9174 21.6669 34.9174 19.8951C34.9174 18.1233 33.9218 16.687 32.6938 16.687C31.4657 16.687 30.4702 18.1233 30.4702 19.8951C30.4702 21.6669 31.4657 23.1032 32.6938 23.1032Z" stroke="#222222" stroke-width="1.21981" stroke-linecap="round" stroke-linejoin="round"/>
<path d="M35.2841 8.58715C34.6244 6.9892 32.9994 6.13533 31.6433 6.69645C30.9591 6.977 30.4704 7.56251 30.2383 8.2944C29.9084 9.34343 30.3727 10.4779 31.2157 11.1975C31.7777 11.6855 32.4741 12.4905 32.8528 13.6616C33.3049 15.1253 32.9872 16.3207 32.8651 16.6867" stroke="#222222" stroke-width="1.21981" stroke-linecap="round" stroke-linejoin="round"/>
<path d="M22.0894 36.9599C22.0894 40.5584 19.0839 43.4737 15.3943 43.4737C11.7046 43.4737 8.6991 40.5584 8.6991 36.9599C8.6991 33.3615 11.7046 22.249 15.3943 22.249C19.0839 22.249 22.0894 33.3615 22.0894 36.9599Z" stroke="#222222" stroke-width="1.21981" stroke-linecap="round" stroke-linejoin="round"/>
<path d="M19.2673 30.7882C19.2673 32.8741 17.5324 34.5696 15.3821 34.5696C13.2318 34.5696 11.4969 32.8741 11.4969 30.7882C11.4969 28.7023 13.2318 22.2617 15.3821 22.2617C17.5324 22.2617 19.2673 28.7023 19.2673 30.7882Z" stroke="#222222" stroke-width="1.21981" stroke-linecap="round" stroke-linejoin="round"/>
<path d="M15.3821 21.9323C17.1567 21.9323 18.5953 20.9383 18.5953 19.7122C18.5953 18.4861 17.1567 17.4922 15.3821 17.4922C13.6075 17.4922 12.1689 18.4861 12.1689 19.7122C12.1689 20.9383 13.6075 21.9323 15.3821 21.9323Z" stroke="#222222" stroke-width="1.21981" stroke-linecap="round" stroke-linejoin="round"/>
<path d="M15.3818 17.1872C16.6098 17.1872 17.6054 15.7509 17.6054 13.9791C17.6054 12.2073 16.6098 10.771 15.3818 10.771C14.1537 10.771 13.1582 12.2073 13.1582 13.9791C13.1582 15.7509 14.1537 17.1872 15.3818 17.1872Z" stroke="#222222" stroke-width="1.21981" stroke-linecap="round" stroke-linejoin="round"/>
<path d="M17.9843 2.67114C17.3246 1.07318 15.6996 0.219318 14.3435 0.78043C13.6593 1.06099 13.1706 1.64649 12.9385 2.37838C12.6086 3.42742 13.0729 4.56184 13.9159 5.28153C14.4779 5.76945 15.1743 6.57453 15.553 7.74554C16.0051 9.20931 15.6874 10.4047 15.5653 10.7707" stroke="#222222" stroke-width="1.21981" stroke-linecap="round" stroke-linejoin="round"/>
</g>
<defs>
<clipPath id="clip0_565_65">
<rect width="40" height="50" fill="white"/>
</clipPath>
</defs>
</svg>
