<svg width="61" height="50" viewBox="0 0 61 50" fill="none" xmlns="http://www.w3.org/2000/svg">
<g clip-path="url(#clip0_565_47)">
<path d="M38.6921 49.2659L42.5231 38.5254" stroke="#222222" stroke-width="1.38113" stroke-linecap="round" stroke-linejoin="round"/>
<path d="M0.736572 42.2423L23.7221 43.4471L38.53 23.4207L33.7561 16.1771L17.5779 13.8115L3.41821 31.8103L0.736572 42.2423Z" stroke="#222222" stroke-width="1.38113" stroke-linecap="round" stroke-linejoin="round"/>
<path d="M3.34448 32.0157L20.8488 33.0589L21.0698 32.7651L33.7561 16.1768" stroke="#222222" stroke-width="1.38113" stroke-linecap="round" stroke-linejoin="round"/>
<path d="M23.7218 43.4475L20.8486 33.0596" stroke="#222222" stroke-width="1.38113" stroke-linecap="round" stroke-linejoin="round"/>
<path d="M35.9956 19.5568L44.9688 17.0737L57.3898 35.146L60.263 44.7699L38.692 49.2659L29.3357 37.1002" stroke="#222222" stroke-width="1.38113" stroke-linecap="round" stroke-linejoin="round"/>
<path d="M35.2002 27.9463L42.5231 38.5252L57.3901 35.1458" stroke="#222222" stroke-width="1.38113" stroke-linecap="round" stroke-linejoin="round"/>
<path d="M22.5876 6.9209L26.1386 10.4766" stroke="#222222" stroke-width="1.38113" stroke-linecap="round" stroke-linejoin="round"/>
<path d="M33.5205 0.73584V7.64151" stroke="#222222" stroke-width="1.38113" stroke-linecap="round" stroke-linejoin="round"/>
<path d="M44.9397 5.5542L40.0332 10.4469" stroke="#222222" stroke-width="1.38113" stroke-linecap="round" stroke-linejoin="round"/>
</g>
<defs>
<clipPath id="clip0_565_47">
<rect width="61" height="50" fill="white"/>
</clipPath>
</defs>
</svg>
