<svg width="42" height="50" viewBox="0 0 42 50" fill="none" xmlns="http://www.w3.org/2000/svg">
<g clip-path="url(#clip0_565_90)">
<path d="M20.6379 49.2941C29.0979 49.2941 35.9562 42.3361 35.9562 33.753C35.9562 25.1699 29.0979 18.2119 20.6379 18.2119C12.1778 18.2119 5.31958 25.1699 5.31958 33.753C5.31958 42.3361 12.1778 49.2941 20.6379 49.2941Z" stroke="#222222" stroke-width="1.41283" stroke-miterlimit="10"/>
<path d="M20.6379 45.0982C26.8138 45.0982 31.8203 40.0189 31.8203 33.7532C31.8203 27.4875 26.8138 22.4082 20.6379 22.4082C14.4621 22.4082 9.45557 27.4875 9.45557 33.7532C9.45557 40.0189 14.4621 45.0982 20.6379 45.0982Z" stroke="#222222" stroke-width="1.41283" stroke-miterlimit="10"/>
<path d="M20.6379 18.2118C22.9452 18.2118 24.8156 16.3142 24.8156 13.9733C24.8156 11.6325 22.9452 9.73486 20.6379 9.73486C18.3306 9.73486 16.4602 11.6325 16.4602 13.9733C16.4602 16.3142 18.3306 18.2118 20.6379 18.2118Z" stroke="#222222" stroke-width="1.41283" stroke-miterlimit="10"/>
<path d="M28.1301 13.2666C28.1301 15.9934 24.774 18.2115 20.638 18.2115C16.5021 18.2115 13.146 15.9934 13.146 13.2666" stroke="#222222" stroke-width="1.41283" stroke-miterlimit="10" stroke-linecap="round"/>
<path d="M26.5566 2.51483C27.2411 2.51483 27.796 1.95187 27.796 1.25742C27.796 0.562965 27.2411 0 26.5566 0C25.8722 0 25.3173 0.562965 25.3173 1.25742C25.3173 1.95187 25.8722 2.51483 26.5566 2.51483Z" fill="#222222"/>
<path d="M41.1228 16.8832C41.6073 16.8832 42.0001 16.4847 42.0001 15.9931C42.0001 15.5015 41.6073 15.103 41.1228 15.103C40.6383 15.103 40.2455 15.5015 40.2455 15.9931C40.2455 16.4847 40.6383 16.8832 41.1228 16.8832Z" fill="#222222"/>
<path d="M0.877565 16.8832C1.3621 16.8832 1.75489 16.4847 1.75489 15.9931C1.75489 15.5015 1.3621 15.103 0.877565 15.103C0.393034 15.103 0.000244141 15.5015 0.000244141 15.9931C0.000244141 16.4847 0.393034 16.8832 0.877565 16.8832Z" fill="#222222"/>
<path d="M8.9961 8.70282C9.6806 8.70282 10.2355 8.13986 10.2355 7.44541C10.2355 6.75095 9.6806 6.18799 8.9961 6.18799C8.31161 6.18799 7.75671 6.75095 7.75671 7.44541C7.75671 8.13986 8.31161 8.70282 8.9961 8.70282Z" fill="#222222"/>
</g>
<defs>
<clipPath id="clip0_565_90">
<rect width="42" height="50" fill="white"/>
</clipPath>
</defs>
</svg>
