<svg width="58" height="50" viewBox="0 0 58 50" fill="none" xmlns="http://www.w3.org/2000/svg">
<g clip-path="url(#clip0_565_129)">
<path d="M36.2867 49.2253C45.6554 49.2253 53.2503 41.5969 53.2503 32.1869C53.2503 22.7768 45.6554 15.1484 36.2867 15.1484C26.918 15.1484 19.3231 22.7768 19.3231 32.1869C19.3231 41.5969 26.918 49.2253 36.2867 49.2253Z" stroke="#222222" stroke-width="1.54895" stroke-miterlimit="10"/>
<path d="M36.2868 43.0295C42.2487 43.0295 47.0818 38.1751 47.0818 32.1869C47.0818 26.1986 42.2487 21.3442 36.2868 21.3442C30.3249 21.3442 25.4918 26.1986 25.4918 32.1869C25.4918 38.1751 30.3249 43.0295 36.2868 43.0295Z" stroke="#222222" stroke-width="1.54895" stroke-miterlimit="10"/>
<path d="M44.8764 16.9455C47.4315 16.9455 49.5029 14.8651 49.5029 12.2987C49.5029 9.73232 47.4315 7.65186 44.8764 7.65186C42.3213 7.65186 40.25 9.73232 40.25 12.2987C40.25 14.8651 42.3213 16.9455 44.8764 16.9455Z" stroke="#222222" stroke-width="1.54895" stroke-miterlimit="10"/>
<path d="M52.7876 14.9005C51.6002 17.6421 47.2359 18.3856 43.0413 16.5579C38.8467 14.7301 36.3946 11.0126 37.5821 8.271" stroke="#222222" stroke-width="1.54895" stroke-miterlimit="10" stroke-linecap="round"/>
<path d="M31.4905 21.9023C31.7218 22.2121 31.9377 22.5374 32.1536 22.8782C35.8856 28.9346 35.4075 36.416 31.4905 41.8528" stroke="#222222" stroke-width="1.54895" stroke-miterlimit="10"/>
<path d="M26.71 17.4256C21.405 14.0953 14.4654 13.863 8.7903 17.3946C0.832847 22.3667 -1.61916 32.8686 3.33112 40.8611C8.26598 48.8537 18.7371 51.3165 26.6946 46.3444C26.6946 46.3444 26.6946 46.3444 26.7254 46.3444" stroke="#222222" stroke-width="1.54895" stroke-miterlimit="10"/>
<path d="M26.7253 25.8677C26.7869 25.9606 26.8486 26.0535 26.9103 26.162C29.2235 29.8949 28.9922 34.4953 26.7098 37.9185" stroke="#222222" stroke-width="1.54895" stroke-miterlimit="10"/>
<path d="M21.9446 21.9024C18.8294 20.5703 15.1437 20.7252 12.044 22.6614C6.98576 25.8212 5.4282 32.5127 8.57417 37.5932C11.4117 42.1936 17.1176 43.9129 21.9446 41.8683" stroke="#222222" stroke-width="1.54895" stroke-miterlimit="10"/>
<path d="M47.5904 2.75713C48.3484 2.75713 48.9629 2.13992 48.9629 1.37856C48.9629 0.617203 48.3484 0 47.5904 0C46.8324 0 46.2179 0.617203 46.2179 1.37856C46.2179 2.13992 46.8324 2.75713 47.5904 2.75713Z" fill="#222222"/>
<path d="M57.0284 12.4072C57.565 12.4072 58 11.9703 58 11.4314C58 10.8925 57.565 10.4556 57.0284 10.4556C56.4919 10.4556 56.0569 10.8925 56.0569 11.4314C56.0569 11.9703 56.4919 12.4072 57.0284 12.4072Z" fill="#222222"/>
<path d="M5.93713 10.502C6.4737 10.502 6.90868 10.0651 6.90868 9.52613C6.90868 8.98719 6.4737 8.55029 5.93713 8.55029C5.40055 8.55029 4.96558 8.98719 4.96558 9.52613C4.96558 10.0651 5.40055 10.502 5.93713 10.502Z" fill="#222222"/>
<path d="M28.1441 9.5413C28.9021 9.5413 29.5166 8.9241 29.5166 8.16274C29.5166 7.40138 28.9021 6.78418 28.1441 6.78418C27.3861 6.78418 26.7716 7.40138 26.7716 8.16274C26.7716 8.9241 27.3861 9.5413 28.1441 9.5413Z" fill="#222222"/>
</g>
<defs>
<clipPath id="clip0_565_129">
<rect width="58" height="50" fill="white"/>
</clipPath>
</defs>
</svg>
